<?xml version="1.0" standalone="no"?>
<!DOCTYPE svg PUBLIC "-//W3C//DTD SVG 20010904//EN"
 "http://www.w3.org/TR/2001/REC-SVG-20010904/DTD/svg10.dtd">
<svg version="1.0" xmlns="http://www.w3.org/2000/svg"
 width="16.000000pt" height="16.000000pt" viewBox="0 0 16.000000 16.000000"
 preserveAspectRatio="xMidYMid meet">
<metadata>
Created by potrace 1.11, written by Peter Selinger 2001-2013
</metadata>
<g transform="translate(0.000000,16.000000) scale(0.003125,-0.003125)"
fill="#000000" stroke="none">
<path d="M1924 4865 c-8 -20 -9 -415 -1 -415 4 0 10 0 13 1 4 0 11 -5 15 -13
7 -10 9 -10 9 1 0 11 3 12 12 3 7 -7 17 -8 30 -1 13 7 18 6 18 -2 0 -8 4 -8
15 1 10 8 15 9 15 1 0 -7 8 -8 25 -1 17 7 25 6 25 -1 0 -8 5 -7 15 1 10 8 15
9 15 1 0 -7 8 -8 25 -1 17 7 25 6 25 -1 0 -8 5 -7 15 1 11 9 15 9 15 1 0 -7 5
-9 12 -5 18 11 408 11 408 0 0 -5 8 -2 17 5 15 12 16 12 10 -5 -6 -15 -5 -17
6 -8 8 7 17 9 20 5 4 -3 7 -1 7 7 0 9 3 10 13 1 8 -6 17 -8 20 -4 11 10 147 9
147 -1 0 -6 5 -5 12 2 7 7 17 8 30 1 13 -7 18 -6 18 3 0 9 3 9 10 -2 5 -8 10
-10 10 -5 0 6 33 10 80 10 44 0 80 -4 80 -8 0 -5 5 -5 12 -1 18 12 58 11 58
-1 0 -5 5 -3 10 6 11 18 15 417 5 428 -11 11 -1267 7 -1271 -4z"/>
<path d="M2559 4413 c-13 -16 -12 -17 4 -4 16 13 21 21 13 21 -2 0 -10 -8 -17
-17z"/>
<path d="M2785 4419 c-3 -4 2 -6 10 -5 21 3 28 13 10 13 -9 0 -18 -4 -20 -8z"/>
<path d="M3025 4419 c-3 -4 2 -6 10 -5 21 3 28 13 10 13 -9 0 -18 -4 -20 -8z"/>
<path d="M3109 4403 c-13 -16 -12 -17 4 -4 9 7 17 15 17 17 0 8 -8 3 -21 -13z"/>
<path d="M2310 4400 c0 -5 5 -10 11 -10 5 0 7 5 4 10 -3 6 -8 10 -11 10 -2 0
-4 -4 -4 -10z"/>
<path d="M2496 4402 c-3 -5 1 -9 9 -9 8 0 12 4 9 9 -3 4 -7 8 -9 8 -2 0 -6 -4
-9 -8z"/>
<path d="M2695 4400 c3 -5 8 -10 11 -10 2 0 4 5 4 10 0 6 -5 10 -11 10 -5 0
-7 -4 -4 -10z"/>
<path d="M2926 4398 c3 -5 10 -6 15 -3 13 9 11 12 -6 12 -8 0 -12 -4 -9 -9z"/>
<path d="M1970 4379 c0 -5 5 -7 10 -4 6 3 10 8 10 11 0 2 -4 4 -10 4 -5 0 -10
-5 -10 -11z"/>
<path d="M2015 4380 c3 -5 8 -10 11 -10 2 0 4 5 4 10 0 6 -5 10 -11 10 -5 0
-7 -4 -4 -10z"/>
<path d="M2055 4380 c3 -5 8 -10 11 -10 2 0 4 5 4 10 0 6 -5 10 -11 10 -5 0
-7 -4 -4 -10z"/>
<path d="M2095 4380 c3 -5 8 -10 11 -10 2 0 4 5 4 10 0 6 -5 10 -11 10 -5 0
-7 -4 -4 -10z"/>
<path d="M2130 4379 c0 -5 5 -7 10 -4 6 3 10 8 10 11 0 2 -4 4 -10 4 -5 0 -10
-5 -10 -11z"/>
<path d="M2175 4380 c3 -5 8 -10 11 -10 2 0 4 5 4 10 0 6 -5 10 -11 10 -5 0
-7 -4 -4 -10z"/>
<path d="M2215 4380 c3 -5 8 -10 11 -10 2 0 4 5 4 10 0 6 -5 10 -11 10 -5 0
-7 -4 -4 -10z"/>
<path d="M3116 4382 c-3 -5 1 -9 9 -9 8 0 12 4 9 9 -3 4 -7 8 -9 8 -2 0 -6 -4
-9 -8z"/>
<path d="M2355 4360 c3 -5 8 -10 11 -10 2 0 4 5 4 10 0 6 -5 10 -11 10 -5 0
-7 -4 -4 -10z"/>
<path d="M2515 4360 c3 -5 8 -10 11 -10 2 0 4 5 4 10 0 6 -5 10 -11 10 -5 0
-7 -4 -4 -10z"/>
<path d="M2477 4274 c-1 -1 -36 -4 -77 -8 -78 -6 -151 -14 -185 -21 -346 -62
-665 -198 -929 -397 l-79 -60 -148 148 c-81 82 -151 150 -156 151 -8 3 -162
-144 -255 -244 l-47 -50 77 -79 c42 -43 75 -83 74 -87 -1 -5 2 -6 6 -3 12 7
44 -28 35 -38 -5 -4 -3 -6 3 -4 15 4 87 -69 79 -82 -3 -6 0 -7 9 -4 27 10 18
-15 -27 -74 -204 -271 -354 -623 -401 -947 -4 -23 -9 -52 -12 -65 -3 -14 -8
-106 -10 -205 -2 -99 -5 -184 -5 -190 -1 -5 0 -14 1 -20 1 -5 3 -26 5 -45 4
-43 25 -194 32 -235 3 -16 6 -40 7 -52 0 -11 4 -19 7 -17 7 4 18 -48 22 -98 1
-14 6 -24 11 -20 5 3 7 -2 3 -11 -3 -10 -3 -17 1 -17 9 0 38 -97 36 -117 -1
-7 2 -11 6 -8 5 3 12 -5 15 -17 10 -31 31 -80 66 -153 16 -33 30 -64 30 -70 0
-5 8 -19 18 -30 29 -32 62 -96 55 -106 -3 -5 0 -8 8 -7 7 2 12 -5 12 -15 -1
-10 0 -16 4 -13 8 9 64 -73 57 -84 -4 -6 -1 -9 5 -8 7 2 17 -6 23 -17 7 -11
15 -22 18 -25 23 -20 119 -142 119 -151 0 -7 3 -9 6 -6 9 9 77 -61 70 -72 -3
-5 0 -9 7 -8 31 1 48 -4 43 -12 -3 -5 0 -9 7 -8 43 1 67 -4 61 -14 -4 -8 0 -8
15 0 11 7 21 10 21 7 0 -3 21 1 47 9 25 8 51 11 56 8 6 -3 7 -2 4 4 -4 6 7 23
24 38 48 42 72 107 66 175 -5 62 -23 98 -71 145 -105 102 -241 294 -313 439
-71 147 -143 375 -148 472 -1 23 -6 48 -11 55 -9 15 -15 340 -7 401 3 25 9 36
17 31 8 -4 8 -3 0 6 -7 8 -9 25 -4 46 4 19 5 36 2 39 -3 4 0 6 7 6 7 0 9 4 6
10 -7 11 16 120 25 115 3 -2 5 15 6 37 1 22 5 43 10 47 5 3 11 15 12 26 2 11
7 22 10 25 4 3 8 16 10 30 1 13 7 27 13 31 6 3 11 10 12 15 1 5 5 8 8 7 4 -1
4 7 1 19 -3 14 -1 19 6 14 6 -3 14 -1 18 5 4 7 3 9 -4 5 -6 -3 -13 -2 -17 3
-3 5 2 14 11 19 9 5 16 12 15 15 -1 14 21 67 28 67 4 0 8 6 8 13 0 31 155 257
176 257 6 0 7 3 4 7 -4 3 8 20 26 37 17 17 31 33 29 36 -2 2 4 7 13 10 9 3 17
10 18 15 1 6 6 9 10 7 5 -1 6 2 3 6 -7 12 28 44 38 35 4 -5 6 -2 4 6 -2 8 8
20 22 28 14 7 21 13 16 13 -6 0 -1 6 9 14 11 8 23 12 28 9 4 -2 6 -1 5 4 -4
10 39 53 45 46 3 -2 10 5 16 16 7 13 17 18 28 14 10 -4 14 -2 10 4 -4 6 4 18
18 27 14 9 25 13 25 9 0 -4 6 0 13 9 6 9 28 26 47 37 52 30 134 75 140 76 3 0
11 4 18 8 6 5 17 5 24 1 6 -4 8 -3 5 3 -7 11 43 36 69 36 8 0 14 5 14 10 0 5
7 4 16 -3 12 -11 15 -11 12 0 -3 13 111 59 157 62 14 1 25 7 25 12 0 5 3 7 6
3 3 -3 17 -2 30 3 17 7 24 6 24 -3 0 -9 2 -9 8 -1 11 17 138 41 127 25 -3 -6
7 -4 22 4 34 18 47 19 37 3 -6 -10 -5 -10 7 -1 12 10 18 10 29 0 8 -7 11 -8 7
-1 -7 12 50 26 58 15 3 -6 82 -6 95 -1 6 3 1 3 100 -6 92 -8 125 -11 125 -14
0 -1 16 -3 36 -5 52 -4 80 -15 73 -27 -5 -7 -2 -8 7 -2 20 12 60 5 78 -15 9
-9 12 -11 7 -4 -11 18 -8 17 75 -13 l72 -26 46 24 c25 12 52 29 59 36 8 6 18
10 23 7 5 -4 9 -2 9 3 0 4 17 17 38 29 20 11 53 29 72 39 19 10 40 25 48 32 7
7 18 10 23 7 5 -4 9 -2 9 2 0 5 27 25 60 44 33 18 60 37 60 40 0 10 -231 117
-335 154 -106 39 -296 89 -380 101 -27 3 -59 8 -69 10 -53 10 -351 24 -359 18z"/>
<path d="M4260 3866 c-19 -13 -228 -135 -465 -272 -236 -136 -542 -313 -680
-393 -137 -79 -335 -194 -440 -254 -104 -61 -206 -119 -226 -131 -20 -12 -86
-49 -145 -84 -60 -34 -135 -85 -166 -113 -127 -111 -211 -291 -212 -455 -1
-48 -5 -84 -11 -84 -5 0 -5 -4 2 -8 6 -4 13 -27 16 -52 3 -25 10 -57 16 -71 5
-15 7 -30 4 -33 -4 -3 -2 -6 3 -6 6 0 16 -17 23 -37 8 -21 22 -50 32 -65 11
-15 16 -34 13 -45 -4 -13 -3 -14 4 -5 7 10 13 7 27 -15 10 -15 35 -43 54 -61
20 -19 35 -38 33 -43 -1 -5 1 -8 5 -7 12 2 63 -24 63 -33 0 -4 18 -14 40 -23
22 -9 40 -20 40 -26 0 -5 3 -9 8 -8 15 4 72 -14 72 -23 0 -5 11 -7 25 -5 19 4
25 0 25 -12 0 -12 3 -13 8 -5 5 7 19 10 32 7 14 -2 37 -5 52 -6 15 0 25 -5 22
-9 -2 -4 0 -11 6 -14 6 -4 9 -1 8 6 -2 8 11 13 35 15 27 2 35 0 30 -9 -5 -9
-3 -9 8 0 13 11 100 29 127 26 6 0 12 4 12 9 0 6 7 7 16 4 8 -3 13 -2 9 3 -3
5 8 12 25 16 16 4 32 11 35 16 4 5 13 9 21 9 8 0 24 9 36 20 12 11 27 20 34
20 6 0 15 7 18 16 4 9 13 14 22 10 8 -3 13 -2 10 3 -7 11 29 43 38 34 4 -5 7
-3 5 2 -3 15 12 46 21 40 4 -2 12 7 19 21 6 15 16 22 23 18 7 -5 8 -3 3 5 -4
7 2 22 16 37 12 13 20 24 16 24 -9 0 64 123 82 138 9 8 10 10 2 7 -9 -5 -8 1
4 19 10 14 21 26 26 26 5 0 6 6 3 13 -3 8 2 20 11 27 8 7 15 19 15 26 0 8 5
14 10 14 6 0 9 5 8 12 -2 7 2 12 9 13 6 0 15 4 20 9 5 5 3 6 -4 2 -7 -4 -13
-2 -13 3 0 6 8 11 18 12 9 0 12 3 5 5 -7 4 -1 23 20 59 17 30 34 52 39 49 5
-3 7 -2 6 3 -3 11 20 73 27 73 3 0 3 -5 -1 -12 -4 -7 -3 -8 5 -4 6 4 8 12 5
18 -4 6 1 17 11 25 11 7 15 13 11 13 -4 0 3 18 15 40 12 21 25 37 29 35 4 -3
7 3 6 13 -1 11 5 16 19 15 11 -1 14 0 8 3 -7 3 -13 10 -13 15 0 15 56 100 62
94 3 -4 5 2 5 12 -1 9 3 18 10 18 6 0 15 4 20 9 5 5 3 6 -4 2 -7 -4 -13 -2
-13 3 0 6 5 11 12 11 6 0 9 3 5 6 -3 3 5 24 19 45 13 21 24 41 24 43 0 3 10
21 21 41 18 31 24 34 38 23 14 -11 14 -11 4 2 -15 20 -17 31 -6 39 5 3 26 38
47 76 21 39 43 73 48 76 5 3 10 10 11 15 1 5 6 8 10 6 4 -1 7 3 6 10 -3 21 12
48 24 41 5 -3 7 -1 3 5 -7 12 13 62 26 62 4 0 8 7 8 16 0 19 25 46 34 36 4 -3
4 1 1 10 -3 8 1 23 10 32 9 9 13 16 8 16 -4 0 -1 6 7 13 8 7 16 18 18 25 5 27
34 62 46 55 6 -4 5 1 -3 10 -7 9 -9 17 -3 17 5 0 12 9 15 21 3 12 10 18 16 15
5 -4 9 2 9 11 -1 10 23 59 52 108 58 101 89 154 133 235 17 30 41 72 54 92 35
57 30 61 -27 24z"/>
<path d="M3550 3856 c0 -2 8 -10 18 -17 15 -13 16 -12 3 4 -13 16 -21 21 -21
13z"/>
<path d="M3465 3840 c-3 -6 1 -7 9 -4 18 7 21 14 7 14 -6 0 -13 -4 -16 -10z"/>
<path d="M2466 3822 c-3 -5 1 -9 9 -9 8 0 15 4 15 9 0 4 -4 8 -9 8 -6 0 -12
-4 -15 -8z"/>
<path d="M3530 3821 c0 -10 29 -36 34 -30 1 2 -6 12 -16 22 -10 9 -18 13 -18
8z"/>
<path d="M2536 3807 c3 -10 9 -15 12 -12 3 3 0 11 -7 18 -10 9 -11 8 -5 -6z"/>
<path d="M2296 3802 c-3 -5 1 -9 9 -9 8 0 12 4 9 9 -3 4 -7 8 -9 8 -2 0 -6 -4
-9 -8z"/>
<path d="M2396 3802 c-3 -5 1 -9 9 -9 8 0 12 4 9 9 -3 4 -7 8 -9 8 -2 0 -6 -4
-9 -8z"/>
<path d="M2513 3795 c0 -8 4 -12 9 -9 5 3 6 10 3 15 -9 13 -12 11 -12 -6z"/>
<path d="M2773 3795 c0 -8 4 -12 9 -9 4 3 8 9 8 15 0 5 -4 9 -8 9 -5 0 -9 -7
-9 -15z"/>
<path d="M3370 3801 c0 -6 4 -12 8 -15 5 -3 9 1 9 9 0 8 -4 15 -9 15 -4 0 -8
-4 -8 -9z"/>
<path d="M2470 3796 c0 -2 8 -10 18 -17 15 -13 16 -12 3 4 -13 16 -21 21 -21
13z"/>
<path d="M2719 3798 c-5 -18 -6 -38 -1 -34 7 8 12 36 6 36 -2 0 -4 -1 -5 -2z"/>
<path d="M2180 3780 c-9 -6 -10 -10 -3 -10 6 0 15 5 18 10 8 12 4 12 -15 0z"/>
<path d="M2346 3778 c3 -4 9 -8 15 -8 5 0 9 4 9 8 0 5 -7 9 -15 9 -8 0 -12 -4
-9 -9z"/>
<path d="M2675 3781 c-3 -5 -2 -12 3 -15 5 -3 9 1 9 9 0 17 -3 19 -12 6z"/>
<path d="M2235 3770 c-4 -6 -12 -7 -18 -4 -7 4 -8 3 -4 -1 13 -15 34 -14 34 1
0 17 -4 18 -12 4z"/>
<path d="M2315 3771 c-3 -5 -2 -12 3 -15 5 -3 9 1 9 9 0 17 -3 19 -12 6z"/>
<path d="M3395 3740 c3 -5 8 -10 11 -10 2 0 4 5 4 10 0 6 -5 10 -11 10 -5 0
-7 -4 -4 -10z"/>
<path d="M2216 3727 c3 -10 9 -15 12 -12 3 3 0 11 -7 18 -10 9 -11 8 -5 -6z"/>
<path d="M2010 3721 c0 -6 4 -13 10 -16 6 -3 7 1 4 9 -7 18 -14 21 -14 7z"/>
<path d="M3236 3718 c3 -5 10 -6 15 -3 13 9 11 12 -6 12 -8 0 -12 -4 -9 -9z"/>
<path d="M3276 3722 c-3 -5 1 -9 9 -9 8 0 12 4 9 9 -3 4 -7 8 -9 8 -2 0 -6 -4
-9 -8z"/>
<path d="M2810 3705 c0 -7 30 -13 34 -7 3 4 -4 9 -15 9 -10 1 -19 0 -19 -2z"/>
<path d="M3000 3700 c-9 -6 -10 -10 -3 -10 6 0 15 5 18 10 8 12 4 12 -15 0z"/>
<path d="M1933 3685 c0 -8 4 -12 9 -9 5 3 6 10 3 15 -9 13 -12 11 -12 -6z"/>
<path d="M1875 3679 c-3 -4 2 -6 10 -5 21 3 28 13 10 13 -9 0 -18 -4 -20 -8z"/>
<path d="M1966 3682 c-3 -5 1 -9 9 -9 8 0 15 4 15 9 0 4 -4 8 -9 8 -6 0 -12
-4 -15 -8z"/>
<path d="M2010 3681 c0 -6 4 -13 10 -16 6 -3 7 1 4 9 -7 18 -14 21 -14 7z"/>
<path d="M2226 3678 c3 -5 10 -6 15 -3 13 9 11 12 -6 12 -8 0 -12 -4 -9 -9z"/>
<path d="M3255 3660 c3 -5 8 -10 11 -10 2 0 4 5 4 10 0 6 -5 10 -11 10 -5 0
-7 -4 -4 -10z"/>
<path d="M676 3647 c3 -10 9 -15 12 -12 3 3 0 11 -7 18 -10 9 -11 8 -5 -6z"/>
<path d="M4229 3643 c-13 -16 -12 -17 4 -4 16 13 21 21 13 21 -2 0 -10 -8 -17
-17z"/>
<path d="M3177 3635 c-4 -8 -3 -16 1 -19 4 -3 9 4 9 15 2 23 -3 25 -10 4z"/>
<path d="M1719 3608 c-5 -18 -6 -38 -1 -34 7 8 12 36 6 36 -2 0 -4 -1 -5 -2z"/>
<path d="M1886 3598 c3 -5 10 -6 15 -3 13 9 11 12 -6 12 -8 0 -12 -4 -9 -9z"/>
<path d="M1745 3580 c-3 -6 1 -7 9 -4 18 7 21 14 7 14 -6 0 -13 -4 -16 -10z"/>
<path d="M1850 3579 c0 -5 5 -7 10 -4 6 3 10 8 10 11 0 2 -4 4 -10 4 -5 0 -10
-5 -10 -11z"/>
<path d="M1675 3569 c-4 -6 -5 -12 -2 -15 2 -3 7 2 10 11 7 17 1 20 -8 4z"/>
<path d="M793 3545 c0 -8 4 -12 9 -9 5 3 6 10 3 15 -9 13 -12 11 -12 -6z"/>
<path d="M1635 3540 c-3 -5 -1 -10 4 -10 6 0 11 5 11 10 0 6 -2 10 -4 10 -3 0
-8 -4 -11 -10z"/>
<path d="M4130 3539 c0 -5 5 -7 10 -4 6 3 10 8 10 11 0 2 -4 4 -10 4 -5 0 -10
-5 -10 -11z"/>
<path d="M4176 3542 c-3 -5 1 -9 9 -9 8 0 12 4 9 9 -3 4 -7 8 -9 8 -2 0 -6 -4
-9 -8z"/>
<path d="M4080 3440 c-9 -6 -10 -10 -3 -10 6 0 15 5 18 10 8 12 4 12 -15 0z"/>
<path d="M4070 3400 c0 -5 5 -10 11 -10 5 0 7 5 4 10 -3 6 -8 10 -11 10 -2 0
-4 -4 -4 -10z"/>
<path d="M1476 3367 c3 -10 9 -15 12 -12 3 3 0 11 -7 18 -10 9 -11 8 -5 -6z"/>
<path d="M1509 3363 c-13 -16 -12 -17 4 -4 9 7 17 15 17 17 0 8 -8 3 -21 -13z"/>
<path d="M4035 3340 c3 -5 8 -10 11 -10 2 0 4 5 4 10 0 6 -5 10 -11 10 -5 0
-7 -4 -4 -10z"/>
<path d="M1390 3316 c7 -7 13 -7 20 0 6 6 3 10 -10 10 -13 0 -16 -4 -10 -10z"/>
<path d="M4035 3280 c-3 -5 -1 -10 4 -10 6 0 11 5 11 10 0 6 -2 10 -4 10 -3 0
-8 -4 -11 -10z"/>
<path d="M1313 3246 c0 -15 22 -15 34 0 4 5 4 6 -1 2 -5 -4 -14 -3 -21 2 -8 7
-12 5 -12 -4z"/>
<path d="M1315 3209 c-4 -6 -5 -12 -2 -15 2 -3 7 2 10 11 7 17 1 20 -8 4z"/>
<path d="M4387 3163 c-12 -21 -70 -120 -128 -222 l-106 -185 19 -50 c11 -29
17 -60 13 -75 -4 -20 -3 -22 5 -11 8 13 10 12 11 -5 1 -11 2 -26 2 -32 -1 -7
3 -13 7 -13 5 0 7 -11 5 -25 -1 -14 2 -25 8 -25 6 0 7 -3 4 -7 -4 -3 -1 -13 6
-21 10 -13 9 -15 -11 -10 -12 4 -20 2 -16 -3 3 -5 12 -9 21 -9 9 0 13 -6 10
-14 -3 -8 -3 -17 1 -21 7 -7 12 -49 15 -127 1 -27 4 -48 7 -48 9 0 6 -74 -4
-89 -6 -10 -6 -12 3 -7 16 10 7 -192 -14 -309 -59 -330 -205 -627 -426 -869
-40 -43 -80 -94 -91 -114 -38 -76 -12 -209 49 -249 13 -9 20 -19 17 -24 -3 -5
-2 -9 3 -8 4 1 20 -1 36 -6 24 -6 26 -10 15 -24 -12 -15 -11 -15 7 0 13 11 27
14 40 9 28 -10 84 -1 126 21 20 10 40 15 44 11 5 -4 5 -2 2 4 -8 14 76 97 88
87 4 -5 5 -2 1 5 -4 6 0 19 8 28 9 8 16 12 17 7 0 -4 4 2 9 15 5 12 17 22 25
22 9 0 13 4 10 10 -3 5 1 20 9 32 9 12 16 18 16 13 0 -6 6 0 13 11 27 47 89
134 96 134 4 0 8 6 8 13 0 14 64 120 75 125 5 2 6 8 2 13 -3 5 0 9 6 9 6 0 9
4 5 10 -3 5 3 18 13 28 10 10 16 24 14 30 -2 7 1 12 7 12 6 0 11 3 10 8 -2 14
13 52 21 52 4 0 10 13 13 29 3 16 12 35 19 42 7 8 14 30 16 49 1 19 8 38 15
42 7 4 9 8 5 8 -4 0 0 16 8 35 8 19 12 35 9 35 -3 0 1 14 10 30 9 17 12 30 9
30 -4 0 1 10 12 22 10 12 14 19 8 15 -7 -4 -5 19 6 66 9 40 15 78 12 85 -2 7
0 12 5 12 4 0 9 12 10 28 1 15 5 61 9 102 16 150 10 438 -11 555 -3 17 -10 57
-16 89 -16 91 -73 279 -118 394 -43 107 -117 262 -126 262 -3 0 -16 -17 -28
-37z"/>
<path d="M3947 3159 c7 -7 15 -10 18 -7 3 3 -2 9 -12 12 -14 6 -15 5 -6 -5z"/>
<path d="M3915 3149 c-4 -6 -5 -12 -2 -15 2 -3 7 2 10 11 7 17 1 20 -8 4z"/>
<path d="M1186 3098 c3 -5 10 -6 15 -3 13 9 11 12 -6 12 -8 0 -12 -4 -9 -9z"/>
<path d="M1175 3021 c-3 -5 -2 -12 3 -15 5 -3 9 1 9 9 0 17 -3 19 -12 6z"/>
<path d="M1096 2898 c3 -5 10 -6 15 -3 13 9 11 12 -6 12 -8 0 -12 -4 -9 -9z"/>
<path d="M3773 2851 c0 -11 5 -18 9 -15 4 3 5 11 1 19 -7 21 -12 19 -10 -4z"/>
<path d="M3526 2498 c3 -5 10 -6 15 -3 13 9 11 12 -6 12 -8 0 -12 -4 -9 -9z"/>
<path d="M3410 2259 c0 -5 5 -7 10 -4 6 3 10 8 10 11 0 2 -4 4 -10 4 -5 0 -10
-5 -10 -11z"/>
<path d="M3349 2163 c-13 -16 -12 -17 4 -4 16 13 21 21 13 21 -2 0 -10 -8 -17
-17z"/>
<path d="M3380 2120 c-9 -6 -10 -10 -3 -10 6 0 15 5 18 10 8 12 4 12 -15 0z"/>
<path d="M3233 1945 c0 -8 4 -12 9 -9 5 3 6 10 3 15 -9 13 -12 11 -12 -6z"/>
<path d="M3213 1905 c0 -8 4 -12 9 -9 5 3 6 10 3 15 -9 13 -12 11 -12 -6z"/>
<path d="M3155 1840 c-3 -5 -1 -10 4 -10 6 0 11 5 11 10 0 6 -2 10 -4 10 -3 0
-8 -4 -11 -10z"/>
<path d="M1953 1815 c0 -8 4 -12 9 -9 5 3 6 10 3 15 -9 13 -12 11 -12 -6z"/>
<path d="M3145 1800 c-3 -6 1 -7 9 -4 18 7 21 14 7 14 -6 0 -13 -4 -16 -10z"/>
<path d="M3130 1745 c0 -5 5 -17 10 -25 5 -8 10 -10 10 -5 0 6 -5 17 -10 25
-5 8 -10 11 -10 5z"/>
<path d="M3055 1689 c-4 -6 -5 -12 -2 -15 2 -3 7 2 10 11 7 17 1 20 -8 4z"/>
<path d="M4669 1643 c-13 -16 -12 -17 4 -4 16 13 21 21 13 21 -2 0 -10 -8 -17
-17z"/>
<path d="M2180 1565 c0 -2 6 -8 13 -14 10 -8 14 -7 14 2 0 8 -6 14 -14 14 -7
0 -13 -1 -13 -2z"/>
<path d="M2946 1558 c3 -5 10 -6 15 -3 13 9 11 12 -6 12 -8 0 -12 -4 -9 -9z"/>
<path d="M2125 1540 c-3 -6 1 -7 9 -4 18 7 21 14 7 14 -6 0 -13 -4 -16 -10z"/>
<path d="M2830 1537 c0 -2 6 -10 14 -16 11 -9 16 -9 22 1 4 7 4 10 -1 6 -4 -4
-14 -3 -22 3 -7 6 -13 9 -13 6z"/>
<path d="M2954 1529 c-3 -6 -2 -15 3 -20 5 -5 9 -1 9 11 0 23 -2 24 -12 9z"/>
<path d="M2915 1520 c-3 -5 -1 -10 4 -10 6 0 11 5 11 10 0 6 -2 10 -4 10 -3 0
-8 -4 -11 -10z"/>
<path d="M2395 1491 c-3 -5 -2 -12 3 -15 5 -3 9 1 9 9 0 17 -3 19 -12 6z"/>
<path d="M2307 1479 c7 -7 15 -10 18 -7 3 3 -2 9 -12 12 -14 6 -15 5 -6 -5z"/>
<path d="M2346 1478 c3 -5 10 -6 15 -3 13 9 11 12 -6 12 -8 0 -12 -4 -9 -9z"/>
<path d="M2436 1482 c-3 -5 1 -9 9 -9 8 0 12 4 9 9 -3 4 -7 8 -9 8 -2 0 -6 -4
-9 -8z"/>
<path d="M2719 1468 c-5 -18 -6 -38 -1 -34 7 8 12 36 6 36 -2 0 -4 -1 -5 -2z"/>
<path d="M2753 1463 c4 -3 1 -13 -6 -22 -11 -14 -10 -14 5 -2 16 12 16 31 1
31 -4 0 -3 -3 0 -7z"/>
<path d="M2787 1459 c7 -7 15 -10 18 -7 3 3 -2 9 -12 12 -14 6 -15 5 -6 -5z"/>
<path d="M2833 1445 c0 -8 4 -12 9 -9 5 3 6 10 3 15 -9 13 -12 11 -12 -6z"/>
<path d="M2315 1440 c3 -5 8 -10 11 -10 2 0 4 5 4 10 0 6 -5 10 -11 10 -5 0
-7 -4 -4 -10z"/>
<path d="M2519 1448 c-5 -18 -6 -38 -1 -34 7 8 12 36 6 36 -2 0 -4 -1 -5 -2z"/>
<path d="M2709 1403 c-13 -16 -12 -17 4 -4 9 7 17 15 17 17 0 8 -8 3 -21 -13z"/>
<path d="M2656 1378 c3 -4 11 -5 19 -1 21 7 19 12 -4 10 -11 0 -18 -5 -15 -9z"/>
<path d="M570 1296 c0 -2 8 -10 18 -17 15 -13 16 -12 3 4 -13 16 -21 21 -21
13z"/>
<path d="M4473 1155 c0 -8 4 -12 9 -9 5 3 6 10 3 15 -9 13 -12 11 -12 -6z"/>
<path d="M4390 1000 c0 -5 5 -10 10 -10 6 0 10 5 10 10 0 6 -4 10 -10 10 -5 0
-10 -4 -10 -10z"/>
<path d="M4393 965 c0 -8 4 -12 9 -9 5 3 6 10 3 15 -9 13 -12 11 -12 -6z"/>
<path d="M736 927 c3 -10 9 -15 12 -12 3 3 0 11 -7 18 -10 9 -11 8 -5 -6z"/>
<path d="M4347 919 c7 -7 15 -10 18 -7 3 3 -2 9 -12 12 -14 6 -15 5 -6 -5z"/>
<path d="M4390 920 c0 -5 5 -10 11 -10 5 0 7 5 4 10 -3 6 -8 10 -11 10 -2 0
-4 -4 -4 -10z"/>
<path d="M795 901 c-3 -5 -2 -12 3 -15 5 -3 9 1 9 9 0 17 -3 19 -12 6z"/>
<path d="M750 846 c0 -2 7 -7 16 -10 8 -3 12 -2 9 4 -6 10 -25 14 -25 6z"/>
<path d="M827 839 c7 -7 15 -10 18 -7 3 3 -2 9 -12 12 -14 6 -15 5 -6 -5z"/>
<path d="M855 780 c3 -5 8 -10 11 -10 2 0 4 5 4 10 0 6 -5 10 -11 10 -5 0 -7
-4 -4 -10z"/>
<path d="M960 680 c-9 -6 -10 -10 -3 -10 6 0 15 5 18 10 8 12 4 12 -15 0z"/>
<path d="M1395 651 c-3 -5 -2 -12 3 -15 5 -3 9 1 9 9 0 17 -3 19 -12 6z"/>
<path d="M4113 605 c0 -8 4 -15 9 -15 4 0 8 4 8 9 0 6 -4 12 -8 15 -5 3 -9 -1
-9 -9z"/>
<path d="M1026 598 c3 -5 10 -6 15 -3 13 9 11 12 -6 12 -8 0 -12 -4 -9 -9z"/>
<path d="M1370 579 c0 -5 5 -7 10 -4 6 3 10 8 10 11 0 2 -4 4 -10 4 -5 0 -10
-5 -10 -11z"/>
<path d="M1279 553 c-13 -16 -12 -17 4 -4 9 7 17 15 17 17 0 8 -8 3 -21 -13z"/>
<path d="M1310 539 c0 -5 5 -7 10 -4 6 3 10 8 10 11 0 2 -4 4 -10 4 -5 0 -10
-5 -10 -11z"/>
<path d="M4025 540 c-3 -6 1 -7 9 -4 18 7 21 14 7 14 -6 0 -13 -4 -16 -10z"/>
<path d="M3990 480 c0 -5 5 -10 11 -10 5 0 7 5 4 10 -3 6 -8 10 -11 10 -2 0
-4 -4 -4 -10z"/>
<path d="M1175 460 c3 -5 8 -10 11 -10 2 0 4 5 4 10 0 6 -5 10 -11 10 -5 0 -7
-4 -4 -10z"/>
<path d="M1210 459 c0 -5 5 -7 10 -4 6 3 10 8 10 11 0 2 -4 4 -10 4 -5 0 -10
-5 -10 -11z"/>
<path d="M1250 459 c0 -5 5 -7 10 -4 6 3 10 8 10 11 0 2 -4 4 -10 4 -5 0 -10
-5 -10 -11z"/>
</g>
</svg>
